<?xml version="1.0" encoding="UTF-8" standalone="no"?>
<!DOCTYPE svg PUBLIC "-//W3C//DTD SVG 1.1//EN" "http://www.w3.org/Graphics/SVG/1.1/DTD/svg11.dtd">
<svg width="100%" height="100%" viewBox="0 0 500 500" version="1.1" xmlns="http://www.w3.org/2000/svg" xmlns:xlink="http://www.w3.org/1999/xlink" xml:space="preserve" xmlns:serif="http://www.serif.com/" style="fill-rule:evenodd;clip-rule:evenodd;stroke-linejoin:round;stroke-miterlimit:2;">
    <g transform="matrix(15.625,0,0,15.625,0,0)">
        <rect x="0" y="0" width="32" height="32" style="fill:rgb(17,19,16);"/>
    </g>
    <g transform="matrix(15.625,0,0,15.625,0,0)">
        <path d="M13,7L13,10.016C13,10.807 12.686,11.566 12.126,12.126C11.566,12.686 10.807,13 10.016,13L7,13L7,7L13,7Z" style="fill:rgb(154,223,106);"/>
    </g>
    <g transform="matrix(15.625,0,0,15.625,0,0)">
        <path d="M25,7L25,13L21.998,13C20.342,13 19,11.658 19,10.002L19,7L25,7Z" style="fill:rgb(154,223,106);"/>
    </g>
    <g transform="matrix(15.625,0,0,15.625,46.875,-46.875)">
        <rect x="19" y="7" width="6" height="6" style="fill:rgb(154,223,106);"/>
    </g>
    <g transform="matrix(15.625,0,0,15.625,46.875,-46.875)">
        <rect x="1" y="25" width="6" height="6" style="fill:rgb(154,223,106);"/>
    </g>
    <g transform="matrix(15.625,0,0,15.625,46.875,-328.125)">
        <rect x="1" y="25" width="6" height="6" style="fill:rgb(154,223,106);"/>
    </g>
    <g transform="matrix(15.625,0,0,15.625,46.875,-328.125)">
        <rect x="1" y="25" width="6" height="6" style="fill:rgb(154,223,106);"/>
    </g>
    <g transform="matrix(15.625,0,0,15.625,0,0)">
        <path d="M10.002,19C11.658,19 13,20.342 13,21.998L13,25L7,25L7,19L10.002,19Z" style="fill:rgb(154,223,106);"/>
    </g>
    <g transform="matrix(15.625,0,0,15.625,0,0)">
        <path d="M25,19L25,25L19,25L19,21.984C19,21.193 19.314,20.434 19.874,19.874C20.434,19.314 21.193,19 21.984,19L25,19Z" style="fill:rgb(154,223,106);"/>
    </g>
    <g transform="matrix(15.625,0,0,15.625,46.875,46.875)">
        <rect x="19" y="19" width="6" height="6" style="fill:rgb(154,223,106);"/>
    </g>
    <g transform="matrix(0.804345,0,0,0.804345,58.08501,33.732616)">
        <circle cx="238.598" cy="268.874" r="58.277" style="fill:rgb(154,223,106);"/>
    </g>
</svg>
