<?xml version="1.0" encoding="UTF-8" standalone="no"?>
<!DOCTYPE svg PUBLIC "-//W3C//DTD SVG 1.1//EN" "http://www.w3.org/Graphics/SVG/1.1/DTD/svg11.dtd">
<svg width="100%" height="100%" viewBox="0 0 500 500" version="1.1" xmlns="http://www.w3.org/2000/svg" xmlns:xlink="http://www.w3.org/1999/xlink" xml:space="preserve" xmlns:serif="http://www.serif.com/" style="fill-rule:evenodd;clip-rule:evenodd;stroke-linejoin:round;stroke-miterlimit:2;">
    <g transform="matrix(20.833333,0,0,20.833333,-20.833333,-145.833333)">
        <path d="M7,25L7,31L3.25,31C2.007,31 1,29.993 1,28.75L1,25L7,25Z" style="fill:rgb(60,122,22);"/>
        <g transform="matrix(1,0,0,1,3.00002,-14.999983)">
            <rect x="1" y="25" width="6" height="6" style="fill:rgb(60,122,22);"/>
        </g>
        <g transform="matrix(1,0,0,1,9.00002,-9.000007)">
            <rect x="1" y="25" width="6" height="6" style="fill:rgb(60,122,22);"/>
        </g>
        <g transform="matrix(1,0,0,1,15,-14.999983)">
            <rect x="1" y="25" width="6" height="6" style="fill:rgb(60,122,22);"/>
        </g>
        <g transform="matrix(1,0,0,1,3,-3)">
            <rect x="1" y="25" width="6" height="6" style="fill:rgb(60,122,22);"/>
        </g>
        <g transform="matrix(1,0,0,1,15,-3)">
            <rect x="1" y="25" width="6" height="6" style="fill:rgb(60,122,22);"/>
        </g>
        <g transform="matrix(1,0,0,1,0,-18)">
            <path d="M7,25L7,31L1,31L1,27.245C1,26.65 1.237,26.079 1.658,25.658C2.079,25.237 2.65,25 3.245,25L7,25Z" style="fill:rgb(60,122,22);"/>
        </g>
        <g transform="matrix(1,0,0,1,0,6)">
            <path d="M25,19L25,22.754C25,23.35 24.763,23.921 24.342,24.342C23.921,24.763 23.35,25 22.754,25L19,25L19,19L25,19Z" style="fill:rgb(60,122,22);"/>
        </g>
        <g>
            <path d="M22.748,7C23.992,7 25,8.008 25,9.252L25,13L19,13L19,7L22.748,7Z" style="fill:rgb(60,122,22);"/>
        </g>
    </g>
</svg>
