<?xml version="1.0" encoding="UTF-8" standalone="no"?>
<!DOCTYPE svg PUBLIC "-//W3C//DTD SVG 1.1//EN" "http://www.w3.org/Graphics/SVG/1.1/DTD/svg11.dtd">
<svg width="100%" height="100%" viewBox="0 0 500 500" version="1.1" xmlns="http://www.w3.org/2000/svg" xmlns:xlink="http://www.w3.org/1999/xlink" xml:space="preserve" xmlns:serif="http://www.serif.com/" style="fill-rule:evenodd;clip-rule:evenodd;stroke-linejoin:round;stroke-miterlimit:2;">
    <g transform="matrix(15.625,0,0,15.625,0,0)">
        <rect x="0" y="0" width="32" height="32" style="fill:rgb(17,19,16);"/>
    </g>
    <g transform="matrix(15.625,0,0,15.625,46.875,-46.875)">
        <path d="M7,25L7,31L4,31C3.204,31 2.441,30.684 1.879,30.121C1.316,29.559 1,28.796 1,28L1,25L7,25Z" style="fill:rgb(154,223,106);"/>
        <g transform="matrix(1,0,0,1,3.00002,-14.999983)">
            <rect x="1" y="25" width="6" height="6" style="fill:rgb(154,223,106);"/>
        </g>
        <g transform="matrix(1,0,0,1,9.00002,-9.000007)">
            <rect x="1" y="25" width="6" height="6" style="fill:rgb(154,223,106);"/>
        </g>
        <g transform="matrix(1,0,0,1,15,-14.999983)">
            <rect x="1" y="25" width="6" height="6" style="fill:rgb(154,223,106);"/>
        </g>
        <g transform="matrix(1,0,0,1,3,-3)">
            <rect x="1" y="25" width="6" height="6" style="fill:rgb(154,223,106);"/>
        </g>
        <g transform="matrix(1,0,0,1,15,-3)">
            <rect x="1" y="25" width="6" height="6" style="fill:rgb(154,223,106);"/>
        </g>
        <g transform="matrix(1,0,0,1,0,-18)">
            <path d="M7,25L7,31L1,31L1,27.993C1,26.34 2.34,25 3.993,25L7,25Z" style="fill:rgb(154,223,106);"/>
        </g>
        <g transform="matrix(1,0,0,1,0,6)">
            <path d="M25,19L25,22.005C25,23.659 23.659,25 22.005,25L19,25L19,19L25,19Z" style="fill:rgb(154,223,106);"/>
        </g>
        <g>
            <path d="M21.997,7C23.656,7 25,8.344 25,10.003L25,13L19,13L19,7L21.997,7Z" style="fill:rgb(154,223,106);"/>
        </g>
    </g>
</svg>
